<svg width="183" height="217" viewBox="0 0 183 217" fill="none" xmlns="http://www.w3.org/2000/svg">
<path d="M84 217C53.6243 217 29 192.376 29 162L29 120L84 120L84 217Z" fill="white"/>
<path d="M99 60C106.431 60 110.146 60 113.264 60.4194C134.251 63.2417 150.758 79.7493 153.581 100.736C154 103.854 154 107.569 154 115L55 115C46.6392 115 42.4587 115 38.9592 114.458C19.1511 111.39 3.61001 95.8489 0.542022 76.0408C-5.48196e-07 72.5413 -3.65464e-07 68.3608 0 60L99 60Z" fill="white"/>
<path d="M84 -2.40413e-06C76.5691 -2.07931e-06 72.8537 -1.91691e-06 69.7355 0.419356C48.7493 3.24173 32.2417 19.7493 29.4194 40.7355C29 43.8537 29 47.5691 29 55L128 55C136.361 55 140.541 55 144.041 54.458C163.849 51.39 179.39 35.8489 182.458 16.0408C183 12.5413 183 8.36084 183 -6.73155e-06L84 -2.40413e-06Z" fill="white"/>
</svg>
